<?xml version="1.0" standalone="no"?>
<!DOCTYPE svg PUBLIC "-//W3C//DTD SVG 20010904//EN"
 "http://www.w3.org/TR/2001/REC-SVG-20010904/DTD/svg10.dtd">
<svg version="1.0" xmlns="http://www.w3.org/2000/svg"
 width="1024.000000pt" height="1024.000000pt" viewBox="0 0 1024.000000 1024.000000"
 preserveAspectRatio="xMidYMid meet">
<metadata>
Created by potrace 1.11, written by Peter Selinger 2001-2013
</metadata>
<g transform="translate(0.000000,1024.000000) scale(0.100000,-0.100000)"
fill="#000000" stroke="none">
<path d="M0 5120 l0 -5120 5120 0 5120 0 0 5120 0 5120 -5120 0 -5120 0 0
-5120z m2452 3566 l3 -254 135 84 c74 46 137 84 140 84 6 0 117 -200 122 -219
2 -6 -87 -66 -197 -134 l-200 -123 -3 -307 c-1 -169 0 -307 3 -307 3 0 117 68
255 151 l250 150 0 250 0 249 125 0 125 0 2 -170 3 -171 203 127 c112 69 205
124 206 122 2 -1 30 -53 64 -115 43 -80 57 -115 48 -121 -6 -5 -90 -58 -186
-117 -96 -59 -183 -113 -193 -120 -17 -12 -4 -22 120 -96 76 -45 139 -83 141
-84 2 -2 -104 -202 -123 -233 -1 -1 -92 52 -201 119 -109 67 -204 122 -210
122 -14 0 -494 -293 -494 -302 0 -8 481 -304 494 -304 6 0 101 55 210 122 109
67 200 120 201 119 19 -31 125 -231 123 -233 -2 -1 -65 -39 -141 -84 -124 -74
-137 -84 -120 -96 10 -7 97 -61 193 -120 96 -59 180 -112 186 -117 8 -6 -6
-41 -49 -121 -33 -62 -61 -113 -62 -115 -1 -1 -94 54 -206 123 l-204 126 -3
-171 -2 -170 -125 0 -125 0 0 249 0 249 -152 93 c-84 51 -199 121 -255 156
l-103 63 0 -313 1 -312 204 -123 c194 -117 204 -125 193 -145 -24 -47 -111
-202 -114 -206 -2 -2 -66 35 -144 82 l-140 86 0 -254 0 -255 -125 0 -125 0 0
255 0 255 -141 -87 c-132 -81 -142 -85 -153 -67 -6 10 -35 62 -64 116 l-52 96
205 124 204 123 1 312 0 313 -157 -97 c-87 -53 -202 -123 -255 -155 l-98 -59
0 -250 0 -249 -125 0 -125 0 -2 170 -3 171 -204 -126 c-112 -69 -205 -124
-206 -123 -1 2 -29 53 -62 115 -43 80 -57 115 -49 121 6 5 90 58 186 117 96
59 183 113 193 120 17 12 4 22 -120 96 -76 45 -139 83 -141 84 -2 2 26 55 61
119 l63 116 200 -122 c109 -66 204 -121 210 -121 11 0 470 277 491 297 8 8
-51 49 -234 160 -136 82 -251 149 -257 149 -6 0 -101 -55 -210 -121 l-200
-122 -63 116 c-35 64 -63 117 -61 119 2 1 65 39 141 84 123 74 136 84 120 96
-10 7 -97 61 -193 120 -96 59 -180 112 -186 117 -9 6 5 41 48 121 34 62 62
114 64 115 1 2 94 -53 206 -122 l203 -127 3 171 2 170 125 0 125 0 0 -249 0
-249 153 -93 c83 -51 198 -121 255 -156 l102 -63 0 313 -1 312 -204 123 c-194
117 -204 125 -193 145 24 47 111 202 114 206 2 2 66 -35 144 -82 l140 -86 0
254 0 255 125 0 125 0 2 -254z m4588 -1035 l0 -69 -197 -5 c-221 -6 -274 -16
-386 -74 -102 -54 -173 -153 -198 -280 -17 -79 -25 -3887 -9 -4078 19 -237 53
-305 186 -373 83 -42 151 -47 669 -47 548 0 591 4 795 71 195 65 326 149 478
309 205 214 364 525 522 1023 l52 162 85 0 85 0 -6 -42 c-3 -24 -46 -425 -96
-893 -50 -467 -93 -869 -96 -892 l-6 -43 -2349 0 -2349 0 0 69 0 68 173 6
c227 7 337 39 436 123 52 45 106 152 122 244 20 108 21 4177 1 4290 -17 97
-43 150 -103 210 -106 103 -261 150 -500 150 l-129 0 0 70 0 70 1410 0 1410 0
0 -69z"/>
</g>
</svg>
